/* XPM */
static char * test_xpm[] = {
"133 110 4 1",
" 	c #FFFFFF",
".	c #000000",
"+	c #363738",
"@	c #1B1C1C",
"                                                                                                                                     ",
"                                                                                                                                     ",
"                                                                                                                                     ",
"                                                                                                                                     ",
"                                                                                                                                     ",
"                                                                                                                                     ",
"                                                                                                                                     ",
"                                                                                                                                     ",
"                                                                                                                                     ",
"                                                                                                                                     ",
"                                                                                                                                     ",
"                                                                                                                                     ",
"                                                                                                                                     ",
"                                                                                                                                     ",
"                                                                                                                                     ",
"                                                                                                                                     ",
"                                                                                                                                     ",
"                                                                                                                                     ",
"                                                                                                                                     ",
"                                                                                                                                     ",
"                                                                                                                                     ",
"                                                                                                                                     ",
"                                                                                                                                     ",
"                                                                                                                                     ",
"                                                                                                                                     ",
"                                                                                                                                     ",
"                                                                                                                                     ",
"                                                                                                                                     ",
"                                                                                                                                     ",
"                                                                                                                                     ",
"                                                                                                                                     ",
"                                                                                                                                     ",
"                                                                                                                                     ",
"                                                                                                                                     ",
"                                                                                                                                     ",
"                                                                                                                                     ",
"                                                                                                                                     ",
"                                                                                                                                     ",
"                                                                                                                                     ",
"                                                                                                                                     ",
"                                                                                                                                     ",
"                                                                                                                                     ",
"                                                                                                                                     ",
"                                                                                                                                     ",
"                                                                                                                                     ",
"                                                                                                                                     ",
"                                                                                                                                     ",
"                                                                                                                                     ",
"                                                                                                                                     ",
"                                                                                                                                     ",
"                                                                                                                                     ",
"                                                                                                                                     ",
"                                                                                                                                     ",
"                                                                                                                                     ",
"                                                                                                                                     ",
"                                                                                                                                     ",
"                                                                                                                                     ",
"                                                                                                                                     ",
"                                                                                                                                     ",
"                                                                                                                                     ",
"                                                                                                                                     ",
"                                                                                                                                     ",
"                                                                                                                                     ",
"                                                                                                                                     ",
"                                                                                                                                     ",
"                                                                                                                                     ",
"                                                                                                                                     ",
"                                                                                                                                     ",
"                                                                                   ...                                               ",
"                                                                                  ......                                             ",
"                                                                                 ...++..                                             ",
"                                        ....                ......               ..++++..                                            ",
"                                        ......            ........               ..++++..                                            ",
"                                        ..++.................+++..                .++++..                                            ",
"                                        .+++......+@@@+@@@...+++..                .@@@@..                                            ",
"                                        .+++..+++++@@@+@@@+++++...                ..@@@..                                            ",
"                                        ..+++++++++@@@+@@@++++++...               ..@@@..                                            ",
"                                        ..+++++++++@@++@@++++++++...              ..+++..                                            ",
"                                       ...++++++++++++++++++..+++++..             .@+++..                                            ",
"                                       ..++++...++++++++++++...++++..             .@@@...                                            ",
"                                      ..+++++...++++++++++++...+++++..           ..@@@..                                             ",
"                                      ..+++++...++++....+++++.++++++..           ..@@@..                                             ",
"                                     ..+++++++++++++....++++++++++++..          ..+++..                                              ",
"                                     ..++++++++++..+...+..++++++++++.......    ...++...                                              ",
"                                     ..++++++++++.........++++++++++..@@+....  ..@@+..                                               ",
"                                     ..++++++++++++++++++++++++++++..+@@@+@.....@@@...                                               ",
"                                     ..++++++++++++++++++++++++++++..++@@@+@...++@...                                                ",
"                                      ..++++++++++++++++++++++++++..@+++@@++@...+...                                                 ",
"                                      ...++++++++++++++++++++++++...@@++@@@+@@.....                                                  ",
"                                       ....++++++++++++++++++++....@@@++@@@++@@...                                                   ",
"                                         .....++++++++++++++.....++@@@++@@@++@@..                                                    ",
"                                          .......+++++++.......++++@@@+++@@++@@@..                                                   ",
"                                            .+..............+++++++++++++@@++@@@..                                                   ",
"                                            .++++++++++++++++++++++++++++++++@@@..                                                   ",
"                                            .+++++++++++++++++++++++++++++++++++..                                                   ",
"                                            .+++++++++++++++++++++++++++++++++++..                                                   ",
"                                            .+++++++++++++++++++++++++++++++++++..                                                   ",
"                                            ..++++++++++++++++++++++++++++++++++..                                                   ",
"                                            ..++++++++++++++++++++++++++++++++++..                                                   ",
"                                            ..+++++++++++.++++++.++++++++++++++..                                                    ",
"                                            ..+++++.++++..++++++.++++++++.+++++..                                                    ",
"                                            ..+++++...++..+++++...++++...++++++..                                                    ",
"                                            ..+++++......++++++..........+++++..                                                     ",
"                                             ..++++..  ..++++++.... ..++.+++++..                                                     ",
"                                             ..++++..  .+++++++..    ....+++++..                                                     ",
"                                              .++++..  .++++++..      ..+++++..                                                      ",
"                                              ..+++.. ..++++++..      ...+++..                                                       ",
"                                              ...++.. ..+++++..        ......                                                        ",
"                                               .....  ..++++...         ....                                                         ",
"                                                       ......                                                                        "};
